
            <svg xmlns="http://www.w3.org/2000/svg">
                <filter id="grayscale">
                    <feColorMatrix type="saturate" values="0"/>
                </filter>
                <g filter="url(#grayscale)">
                    <svg xmlns="http://www.w3.org/2000/svg" viewBox="112.90000061035155 48.93162930862816 349.1999969482422 422.55337320907205"> <g transform="rotate(45 287.5019951171875 212.11212824818978)"><svg xmlns="http://www.w3.org/2000/svg" xmlns:xlink="http://www.w3.org/1999/xlink" viewBox="0 -0.0000011068582352891099 86.46005249023438 86.18116760253906" height="131.56426046366474" width="131.989990234375" y="146.32999801635742" x="221.507" preserveAspectRatio="xMinYMin" style="overflow: visible;"><linearGradient id="linear-gradient" x1="7.39" y1="-38.97" x2="72.26" y2="64.23" gradientTransform="translate(18.57 42.59) rotate(-45)" gradientUnits="userSpaceOnUse" style=""><stop offset="0" stop-color="#f6921e"></stop><stop offset="0.15" stop-color="#f38723"></stop><stop offset="0.41" stop-color="#eb6931"></stop><stop offset="0.75" stop-color="#de3a48"></stop><stop offset="0.99" stop-color="#d3145a"></stop></linearGradient><linearGradient id="linear-gradient-2" x1="-22.49" y1="-20.11" x2="42.39" y2="83.09" gradientTransform="translate(-17.67 6.35) rotate(-45)" xlink:href="#linear-gradient" style=""></linearGradient><linearGradient id="linear-gradient-3" x1="-11.17" y1="-27.45" x2="53.71" y2="75.75" gradientTransform="translate(19.19 5.72) rotate(-45)" xlink:href="#linear-gradient" style=""></linearGradient><linearGradient id="linear-gradient-4" x1="17.17" y1="-45.34" x2="82.04" y2="57.86" gradientTransform="translate(53.56 40.09) rotate(-45)" xlink:href="#linear-gradient" style=""></linearGradient><linearGradient id="linear-gradient-5" x1="-39.11" y1="-9.81" x2="25.76" y2="93.39" gradientTransform="translate(-14.7 -28.18) rotate(-45)" xlink:href="#linear-gradient" style=""></linearGradient><linearGradient id="linear-gradient-6" x1="-0.98" y1="-34.39" x2="64.46" y2="69.7" gradientTransform="translate(43.13 -17.95) rotate(45)" xlink:href="#linear-gradient" style=""></linearGradient><rect id="Layer_1-2" dataName="Layer 1" class="cls-1" x="55.26" y="18.74" width="11.71" height="11.71" rx="0.85" transform="translate(85.72 -36.52) rotate(90)" style="fill: url(#linear-gradient);"></rect><rect id="Layer_1-2" dataName="Layer 1" class="cls-2" x="19.03" y="18.74" width="11.71" height="11.71" rx="0.85" transform="translate(49.48 -0.28) rotate(90)" style="fill: url(#linear-gradient-2);"></rect><rect id="Layer_1-2" dataName="Layer 1" class="cls-3" x="37.14" width="11.71" height="11.71" rx="0.85" transform="translate(48.85 -37.14) rotate(90)" style="fill: url(#linear-gradient-3);"></rect><rect id="Layer_1-2" dataName="Layer 1" class="cls-4" x="71.51" width="11.71" height="11.71" rx="0.85" transform="translate(83.22 -71.51) rotate(90)" style="fill: url(#linear-gradient-4);"></rect><rect id="Layer_1-2" dataName="Layer 1" class="cls-5" x="3.24" width="11.71" height="11.71" rx="0.85" transform="translate(14.95 -3.24) rotate(90)" style="fill: url(#linear-gradient-5);"></rect><path id="Layer_1-2" dataName="Layer 1" class="cls-6" d="M68.27,71.27V85.12a1.06,1.06,0,0,0,1.06,1.06H85.4a1.06,1.06,0,0,0,1.06-1.06V69.05A1.06,1.06,0,0,0,85.4,68h-14a1.88,1.88,0,0,1-1.88-1.88V54.32a1.88,1.88,0,0,1,1.88-1.88h14a1.06,1.06,0,0,0,1.06-1.06V35.31a1.06,1.06,0,0,0-1.06-1.07H69.33a1.06,1.06,0,0,0-1.06,1.07v14a1.89,1.89,0,0,1-1.89,1.88h-12A2.24,2.24,0,0,1,52.09,49V35.31A1.07,1.07,0,0,0,51,34.24H35a1.07,1.07,0,0,0-1.07,1.07v14A1.88,1.88,0,0,1,32,51.19H20.08a1.88,1.88,0,0,1-1.88-1.88v-14a1.07,1.07,0,0,0-1.07-1.07H1.06A1.07,1.07,0,0,0,0,35.31V51.38a1.07,1.07,0,0,0,1.06,1.06h14A1.89,1.89,0,0,1,17,54.32V66.1A1.89,1.89,0,0,1,15.06,68h-14A1.07,1.07,0,0,0,0,69.05V85.12a1.07,1.07,0,0,0,1.06,1.06H17.13a1.07,1.07,0,0,0,1.07-1.06V71.27a1.88,1.88,0,0,1,1.88-1.88H32a1.88,1.88,0,0,1,1.88,1.88V85.12A1.07,1.07,0,0,0,35,86.18H51a1.07,1.07,0,0,0,1.06-1.06V71.63a2.24,2.24,0,0,1,2.24-2.24h12A1.89,1.89,0,0,1,68.27,71.27ZM48.79,68H37a1.89,1.89,0,0,1-1.89-1.88V54.32A1.89,1.89,0,0,1,37,52.44H48.79A2.24,2.24,0,0,1,51,54.68V65.74A2.24,2.24,0,0,1,48.79,68Z" style="fill: url(#linear-gradient-6);"></path></svg></g> <svg y="385.3350009918213" viewBox="1.5699999332427979 5.449999809265137 209.1999969482422 16.150001525878906" x="182.90000061035155" height="16.150001525878906" width="209.1999969482422" style="overflow: visible;"><g fill="#f7316a" fill-opacity="1" style=""><path d="M3.04 18.20L1.57 18.20L1.57 5.51L6.59 5.51Q7.96 5.51 8.90 5.95Q9.85 6.39 10.33 7.24Q10.82 8.10 10.82 9.32L10.82 9.32Q10.82 10.51 10.33 11.38Q9.85 12.24 8.90 12.69Q7.96 13.14 6.59 13.14L6.59 13.14L3.04 13.14L3.04 18.20ZM3.04 6.73L3.04 11.90L6.41 11.90Q7.87 11.90 8.61 11.24Q9.36 10.58 9.36 9.32L9.36 9.32Q9.36 8.05 8.61 7.39Q7.87 6.73 6.41 6.73L6.41 6.73L3.04 6.73ZM16.38 7.27L14.58 7.27L14.58 5.63L16.38 5.63L16.38 7.27ZM16.22 18.20L14.76 18.20L14.76 9.45L16.22 9.45L16.22 18.20ZM21.55 18.20L19.82 18.20L23.75 13.30L23.75 14.06L20.04 9.45L21.77 9.45L24.56 13.00L24.05 13.00L26.86 9.45L28.57 9.45L24.88 14.02L24.88 13.36L28.79 18.20L27.06 18.20L24.03 14.40L24.56 14.40L21.55 18.20ZM36.13 18.36L36.13 18.36Q34.75 18.36 33.75 17.81Q32.75 17.26 32.20 16.25Q31.65 15.25 31.65 13.84L31.65 13.84Q31.65 12.47 32.19 11.46Q32.73 10.44 33.68 9.86Q34.62 9.29 35.86 9.29L35.86 9.29Q37.05 9.29 37.90 9.81Q38.74 10.33 39.20 11.29Q39.66 12.24 39.66 13.57L39.66 13.57L39.66 14.13L32.77 14.13L32.77 13.18L38.69 13.18L38.40 13.41Q38.40 11.97 37.76 11.17Q37.12 10.37 35.90 10.37L35.90 10.37Q34.98 10.37 34.34 10.79Q33.70 11.21 33.38 11.96Q33.05 12.71 33.05 13.70L33.05 13.70L33.05 13.81Q33.05 14.90 33.41 15.66Q33.76 16.42 34.46 16.80Q35.16 17.19 36.13 17.19L36.13 17.19Q36.91 17.19 37.64 16.95Q38.36 16.70 39.01 16.15L39.01 16.15L39.52 17.17Q38.92 17.71 38.00 18.04Q37.09 18.36 36.13 18.36ZM46.45 18.36L46.45 18.36Q45.12 18.36 44.44 17.57Q43.77 16.78 43.77 15.30L43.77 15.30L43.77 5.51L45.22 5.51L45.22 15.19Q45.22 15.82 45.40 16.25Q45.57 16.69 45.91 16.90Q46.25 17.12 46.75 17.12L46.75 17.12Q46.97 17.12 47.18 17.09Q47.38 17.06 47.56 17.01L47.56 17.01L47.53 18.23Q47.24 18.29 46.98 18.32Q46.72 18.36 46.45 18.36ZM59.39 18.20L57.92 18.20L57.92 5.51L62.94 5.51Q64.31 5.51 65.25 5.95Q66.20 6.39 66.68 7.24Q67.17 8.10 67.17 9.32L67.17 9.32Q67.17 10.51 66.68 11.38Q66.20 12.24 65.25 12.69Q64.31 13.14 62.94 13.14L62.94 13.14L59.39 13.14L59.39 18.20ZM59.39 6.73L59.39 11.90L62.76 11.90Q64.22 11.90 64.97 11.24Q65.71 10.58 65.71 9.32L65.71 9.32Q65.71 8.05 64.97 7.39Q64.22 6.73 62.76 6.73L62.76 6.73L59.39 6.73ZM74.66 18.36L74.66 18.36Q73.27 18.36 72.28 17.81Q71.28 17.26 70.73 16.25Q70.18 15.25 70.18 13.84L70.18 13.84Q70.18 12.47 70.72 11.46Q71.26 10.44 72.20 9.86Q73.15 9.29 74.39 9.29L74.39 9.29Q75.58 9.29 76.42 9.81Q77.27 10.33 77.73 11.29Q78.19 12.24 78.19 13.57L78.19 13.57L78.19 14.13L71.29 14.13L71.29 13.18L77.22 13.18L76.93 13.41Q76.93 11.97 76.29 11.17Q75.65 10.37 74.43 10.37L74.43 10.37Q73.51 10.37 72.87 10.79Q72.23 11.21 71.91 11.96Q71.58 12.71 71.58 13.70L71.58 13.70L71.58 13.81Q71.58 14.90 71.93 15.66Q72.28 16.42 72.99 16.80Q73.69 17.19 74.66 17.19L74.66 17.19Q75.43 17.19 76.16 16.95Q76.89 16.70 77.54 16.15L77.54 16.15L78.04 17.17Q77.45 17.71 76.53 18.04Q75.61 18.36 74.66 18.36ZM83.77 18.20L82.29 18.20L82.29 9.45L83.72 9.45L83.72 11.52L83.54 11.52Q83.84 10.46 84.60 9.91Q85.35 9.36 86.60 9.27L86.60 9.27L87.12 9.22L87.23 10.48L86.31 10.58Q85.08 10.69 84.43 11.37Q83.77 12.04 83.77 13.21L83.77 13.21L83.77 18.20ZM93.13 18.20L91.67 18.20L91.67 10.58L89.95 10.58L89.95 9.45L92.07 9.45L91.67 9.83L91.67 9.14Q91.67 7.40 92.55 6.50Q93.42 5.60 95.24 5.49L95.24 5.49L95.94 5.45L96.07 6.57L95.24 6.62Q94.50 6.68 94.03 6.95Q93.56 7.22 93.35 7.72Q93.13 8.23 93.13 8.96L93.13 8.96L93.13 9.72L92.92 9.45L95.65 9.45L95.65 10.58L93.13 10.58L93.13 18.20ZM102.89 18.36L102.89 18.36Q101.50 18.36 100.51 17.81Q99.51 17.26 98.96 16.25Q98.41 15.25 98.41 13.84L98.41 13.84Q98.41 12.47 98.95 11.46Q99.49 10.44 100.43 9.86Q101.38 9.29 102.62 9.29L102.62 9.29Q103.81 9.29 104.65 9.81Q105.50 10.33 105.96 11.29Q106.42 12.24 106.42 13.57L106.42 13.57L106.42 14.13L99.52 14.13L99.52 13.18L105.45 13.18L105.16 13.41Q105.16 11.97 104.52 11.17Q103.88 10.37 102.66 10.37L102.66 10.37Q101.74 10.37 101.10 10.79Q100.46 11.21 100.14 11.96Q99.81 12.71 99.81 13.70L99.81 13.70L99.81 13.81Q99.81 14.90 100.16 15.66Q100.51 16.42 101.22 16.80Q101.92 17.19 102.89 17.19L102.89 17.19Q103.66 17.19 104.39 16.95Q105.12 16.70 105.77 16.15L105.77 16.15L106.27 17.17Q105.68 17.71 104.76 18.04Q103.84 18.36 102.89 18.36ZM114.23 18.36L114.23 18.36Q112.92 18.36 111.96 17.78Q111.01 17.21 110.50 16.17Q109.98 15.14 109.98 13.77L109.98 13.77Q109.98 12.38 110.50 11.38Q111.01 10.37 111.96 9.83Q112.92 9.29 114.23 9.29L114.23 9.29Q115.04 9.29 115.83 9.58Q116.63 9.86 117.15 10.39L117.15 10.39L116.64 11.45Q116.12 10.94 115.50 10.71Q114.88 10.48 114.32 10.48L114.32 10.48Q112.95 10.48 112.22 11.33Q111.48 12.19 111.48 13.79L111.48 13.79Q111.48 15.35 112.22 16.26Q112.95 17.17 114.32 17.17L114.32 17.17Q114.88 17.17 115.50 16.94Q116.12 16.70 116.64 16.18L116.64 16.18L117.15 17.24Q116.63 17.77 115.83 18.06Q115.02 18.36 114.23 18.36ZM124.37 18.36L124.37 18.36Q122.82 18.36 122.05 17.53Q121.27 16.70 121.27 15.17L121.27 15.17L121.27 10.58L119.56 10.58L119.56 9.45L121.27 9.45L121.27 6.77L122.73 6.77L122.73 9.45L125.50 9.45L125.50 10.58L122.73 10.58L122.73 15.03Q122.73 16.06 123.16 16.59Q123.59 17.12 124.57 17.12L124.57 17.12Q124.85 17.12 125.14 17.05Q125.43 16.97 125.66 16.90L125.66 16.90L125.92 18.02Q125.68 18.14 125.23 18.25Q124.78 18.36 124.37 18.36ZM140.27 18.20L135.98 18.20L135.98 5.51L140.27 5.51Q142.34 5.51 143.77 6.24Q145.20 6.97 145.95 8.38Q146.69 9.79 146.69 11.84L146.69 11.84Q146.69 13.90 145.95 15.32Q145.20 16.74 143.77 17.47Q142.34 18.20 140.27 18.20L140.27 18.20ZM137.46 6.77L137.46 16.94L140.16 16.94Q142.66 16.94 143.89 15.66Q145.13 14.38 145.13 11.84L145.13 11.84Q145.13 9.31 143.88 8.04Q142.64 6.77 140.16 6.77L140.16 6.77L137.46 6.77ZM155.08 18.36L155.08 18.36Q153.70 18.36 152.70 17.81Q151.70 17.26 151.15 16.25Q150.60 15.25 150.60 13.84L150.60 13.84Q150.60 12.47 151.14 11.46Q151.68 10.44 152.63 9.86Q153.57 9.29 154.81 9.29L154.81 9.29Q156.00 9.29 156.85 9.81Q157.69 10.33 158.15 11.29Q158.61 12.24 158.61 13.57L158.61 13.57L158.61 14.13L151.72 14.13L151.72 13.18L157.64 13.18L157.35 13.41Q157.35 11.97 156.71 11.17Q156.07 10.37 154.85 10.37L154.85 10.37Q153.93 10.37 153.29 10.79Q152.65 11.21 152.33 11.96Q152.00 12.71 152.00 13.70L152.00 13.70L152.00 13.81Q152.00 14.90 152.36 15.66Q152.71 16.42 153.41 16.80Q154.11 17.19 155.08 17.19L155.08 17.19Q155.86 17.19 156.59 16.95Q157.31 16.70 157.96 16.15L157.96 16.15L158.47 17.17Q157.87 17.71 156.95 18.04Q156.04 18.36 155.08 18.36ZM165.67 18.36L165.67 18.36Q164.98 18.36 164.35 18.23Q163.71 18.09 163.16 17.85Q162.61 17.60 162.21 17.26L162.21 17.26L162.68 16.24Q163.11 16.58 163.62 16.80Q164.12 17.03 164.64 17.14Q165.16 17.24 165.70 17.24L165.70 17.24Q166.73 17.24 167.25 16.87Q167.77 16.49 167.77 15.84L167.77 15.84Q167.77 15.34 167.43 15.04Q167.09 14.74 166.35 14.58L166.35 14.58L164.71 14.22Q163.58 13.99 163.03 13.41Q162.48 12.83 162.48 11.92L162.48 11.92Q162.48 11.11 162.91 10.52Q163.33 9.94 164.10 9.61Q164.88 9.29 165.90 9.29L165.90 9.29Q166.51 9.29 167.07 9.41Q167.63 9.54 168.13 9.78Q168.62 10.03 168.98 10.39L168.98 10.39L168.49 11.41Q168.15 11.09 167.72 10.86Q167.29 10.64 166.83 10.52Q166.37 10.40 165.90 10.40L165.90 10.40Q164.89 10.40 164.37 10.80Q163.85 11.20 163.85 11.84L163.85 11.84Q163.85 12.35 164.17 12.67Q164.50 13.00 165.18 13.14L165.18 13.14L166.82 13.48Q167.99 13.73 168.58 14.28Q169.16 14.83 169.16 15.77L169.16 15.77Q169.16 16.56 168.73 17.14Q168.30 17.73 167.51 18.05Q166.73 18.36 165.67 18.36ZM174.99 7.27L173.19 7.27L173.19 5.63L174.99 5.63L174.99 7.27ZM174.83 18.20L173.37 18.20L173.37 9.45L174.83 9.45L174.83 18.20ZM183.42 21.60L183.42 21.60Q182.29 21.60 181.29 21.30Q180.29 21.01 179.51 20.41L179.51 20.41L180.00 19.35Q180.54 19.73 181.07 19.97Q181.60 20.21 182.17 20.32Q182.74 20.43 183.35 20.43L183.35 20.43Q184.63 20.43 185.28 19.75Q185.94 19.06 185.94 17.77L185.94 17.77L185.94 15.73L186.12 15.73Q185.85 16.78 184.98 17.39Q184.10 18 182.93 18L182.93 18Q181.73 18 180.85 17.45Q179.96 16.90 179.49 15.91Q179.01 14.92 179.01 13.63L179.01 13.63Q179.01 12.33 179.49 11.35Q179.96 10.37 180.85 9.83Q181.73 9.29 182.93 9.29L182.93 9.29Q184.12 9.29 184.99 9.89Q185.85 10.49 186.10 11.52L186.10 11.52L185.94 11.52L185.94 9.45L187.36 9.45L187.36 17.57Q187.36 18.90 186.92 19.80Q186.48 20.70 185.60 21.15Q184.72 21.60 183.42 21.60ZM183.20 16.81L183.20 16.81Q184.46 16.81 185.20 15.95Q185.94 15.08 185.94 13.63L185.94 13.63Q185.94 12.17 185.20 11.31Q184.46 10.46 183.20 10.46L183.20 10.46Q181.96 10.46 181.22 11.31Q180.49 12.17 180.49 13.63L180.49 13.63Q180.49 15.08 181.22 15.95Q181.96 16.81 183.20 16.81ZM193.56 18.20L192.10 18.20L192.10 9.45L193.52 9.45L193.52 11.39L193.32 11.39Q193.70 10.35 194.56 9.82Q195.41 9.29 196.53 9.29L196.53 9.29Q197.57 9.29 198.26 9.66Q198.96 10.03 199.30 10.80Q199.64 11.57 199.64 12.74L199.64 12.74L199.64 18.20L198.18 18.20L198.18 12.83Q198.18 12.02 197.98 11.50Q197.77 10.98 197.33 10.73Q196.89 10.48 196.18 10.48L196.18 10.48Q195.39 10.48 194.80 10.82Q194.20 11.16 193.88 11.77Q193.56 12.38 193.56 13.21L193.56 13.21L193.56 18.20ZM207.27 18.36L207.27 18.36Q206.59 18.36 205.95 18.23Q205.31 18.09 204.76 17.85Q204.21 17.60 203.82 17.26L203.82 17.26L204.29 16.24Q204.72 16.58 205.22 16.80Q205.73 17.03 206.25 17.14Q206.77 17.24 207.31 17.24L207.31 17.24Q208.34 17.24 208.86 16.87Q209.38 16.49 209.38 15.84L209.38 15.84Q209.38 15.34 209.04 15.04Q208.70 14.74 207.96 14.58L207.96 14.58L206.32 14.22Q205.19 13.99 204.64 13.41Q204.09 12.83 204.09 11.92L204.09 11.92Q204.09 11.11 204.51 10.52Q204.93 9.94 205.71 9.61Q206.48 9.29 207.51 9.29L207.51 9.29Q208.12 9.29 208.68 9.41Q209.24 9.54 209.73 9.78Q210.23 10.03 210.59 10.39L210.59 10.39L210.10 11.41Q209.76 11.09 209.33 10.86Q208.89 10.64 208.44 10.52Q207.98 10.40 207.51 10.40L207.51 10.40Q206.50 10.40 205.98 10.80Q205.46 11.20 205.46 11.84L205.46 11.84Q205.46 12.35 205.78 12.67Q206.10 13.00 206.79 13.14L206.79 13.14L208.43 13.48Q209.60 13.73 210.18 14.28Q210.77 14.83 210.77 15.77L210.77 15.77Q210.77 16.56 210.33 17.14Q209.90 17.73 209.12 18.05Q208.34 18.36 207.27 18.36Z" transform="translate(0, 0)"></path></g></svg> <svg y="334.6649990081787" viewBox="3.4600000381469727 15.479999542236328 69.26000213623047 32.08000183105469" x="252.87000747680665" height="32.08000183105469" width="69.26000213623047" style="overflow: visible;"><g fill="#ffffff" fill-opacity="1" style=""><path d="M30.91 16.11L35.28 16.11L35.28 47.25L31.18 47.25L31.18 24.03L20.84 47.25L17.95 47.25L7.56 23.98L7.56 47.25L3.46 47.25L3.46 16.11L7.88 16.11L19.39 41.85L30.91 16.11ZM52.16 47.56Q49.05 47.56 46.60 46.46Q44.14 45.36 42.75 43.40Q41.35 41.45 41.31 38.88L41.31 38.88L45.67 38.88Q45.90 41.09 47.50 42.59Q49.09 44.10 52.16 44.10L52.16 44.10Q55.08 44.10 56.77 42.64Q58.45 41.17 58.45 38.88L58.45 38.88Q58.45 37.08 57.46 35.95Q56.47 34.83 54.99 34.25Q53.50 33.66 50.98 32.98L50.98 32.98Q47.88 32.17 46.01 31.37Q44.14 30.55 42.82 28.82Q41.49 27.09 41.49 24.16L41.49 24.16Q41.49 21.60 42.79 19.62Q44.10 17.64 46.46 16.56Q48.82 15.48 51.88 15.48L51.88 15.48Q56.30 15.48 59.11 17.69Q61.92 19.89 62.28 23.54L62.28 23.54L57.78 23.54Q57.55 21.73 55.89 20.36Q54.22 18.99 51.48 18.99L51.48 18.99Q48.91 18.99 47.29 20.32Q45.67 21.64 45.67 24.03L45.67 24.03Q45.67 25.74 46.64 26.82Q47.61 27.90 49.03 28.46Q50.44 29.03 53.01 29.75L53.01 29.75Q56.11 30.60 58.00 31.43Q59.89 32.27 61.24 34.00Q62.59 35.73 62.59 38.70L62.59 38.70Q62.59 40.99 61.38 43.02Q60.16 45.05 57.78 46.30Q55.39 47.56 52.16 47.56L52.16 47.56ZM68.63 15.89L72.72 15.89L72.72 47.25L68.63 47.25L68.63 15.89Z" transform="translate(0, 0)"></path></g></svg></svg>
                </g>
            </svg>
        